<mxfile host="app.diagrams.net" modified="2024-02-09T11:35:54.559Z" agent="Mozilla/5.0 (Macintosh; Intel Mac OS X 10_15_7) AppleWebKit/537.36 (KHTML, like Gecko) Chrome/121.0.0.0 Safari/537.36" version="23.1.1" etag="1YsNyuyx2P7KALe_6Q5x" type="github">
  <diagram name="Page-1" id="jFSeWyLYcZw_hIauVOHn">
    <mxGraphModel>
      <root>
        <mxCell id="0" />
        <mxCell id="1" parent="0" />
      </root>
    </mxGraphModel>
  </diagram>
</mxfile>
